solid OpenSCAD_Model
  facet normal 0 0 -1
    outer loop
      vertex 26.6891 -4.445 0
      vertex 28.921 -1.55643 0
      vertex 29.036 -3.09 0
    endloop
  endfacet
  facet normal 0 0 -1
    outer loop
      vertex 26.6891 -4.445 0
      vertex 25.3035 -3.645 0
      vertex 28.921 -1.55643 0
    endloop
  endfacet
  facet normal 0 0 -1
    outer loop
      vertex 25.3035 -3.645 0
      vertex 26.6891 -4.445 0
      vertex 25.3035 -7.955 0
    endloop
  endfacet
  facet normal 0 0 -1
    outer loop
      vertex 34.4621 -14.4 0
      vertex 31.383 -7.155 0
      vertex 34.4621 2.79999 0
    endloop
  endfacet
  facet normal 0 0 -1
    outer loop
      vertex 29.0227 -20 0
      vertex 34.4621 -14.4 0
      vertex 34.5657 -20 0
    endloop
  endfacet
  facet normal 0 0 -1
    outer loop
      vertex 28.921 -10.0436 0
      vertex 34.4621 -14.4 0
      vertex 28.921 -14.5 0
    endloop
  endfacet
  facet normal 0 0 -1
    outer loop
      vertex 34.4621 -14.4 0
      vertex 29.0227 -20 0
      vertex 28.921 -14.5 0
    endloop
  endfacet
  facet normal 0 0 -1
    outer loop
      vertex 34.4621 -14.4 0
      vertex 28.921 -10.0436 0
      vertex 31.383 -7.155 0
    endloop
  endfacet
  facet normal 0 0 -1
    outer loop
      vertex 31.383 -7.155 0
      vertex 28.921 -10.0436 0
      vertex 29.036 -8.51 0
    endloop
  endfacet
  facet normal 0 0 -1
    outer loop
      vertex 28.921 -10.0436 0
      vertex 26.6891 -7.155 0
      vertex 29.036 -8.51 0
    endloop
  endfacet
  facet normal -0 0 -1
    outer loop
      vertex 26.6891 -7.155 0
      vertex 25.3035 -7.955 0
      vertex 26.6891 -4.445 0
    endloop
  endfacet
  facet normal 0 0 -1
    outer loop
      vertex 25.3035 -7.955 0
      vertex 26.6891 -7.155 0
      vertex 28.921 -10.0436 0
    endloop
  endfacet
  facet normal 0 0 -1
    outer loop
      vertex 31.383 -4.445 0
      vertex 34.4621 2.79999 0
      vertex 31.383 -7.155 0
    endloop
  endfacet
  facet normal 0 0 -1
    outer loop
      vertex 28.921 -1.55643 0
      vertex 34.4621 2.79999 0
      vertex 31.383 -4.445 0
    endloop
  endfacet
  facet normal 0 -0 -1
    outer loop
      vertex 29.0523 10 0
      vertex 34.4621 2.79999 0
      vertex 28.921 2.89999 0
    endloop
  endfacet
  facet normal 0 0 -1
    outer loop
      vertex 28.921 -1.55643 0
      vertex 31.383 -4.445 0
      vertex 29.036 -3.09 0
    endloop
  endfacet
  facet normal -0 0 -1
    outer loop
      vertex 34.4621 2.79999 0
      vertex 28.921 -1.55643 0
      vertex 28.921 2.89999 0
    endloop
  endfacet
  facet normal 0 0 -1
    outer loop
      vertex 34.4621 2.79999 0
      vertex 29.0523 10 0
      vertex 34.5953 10 0
    endloop
  endfacet
  facet normal -0.99008 2.18603e-006 0.140502
    outer loop
      vertex 29.4127 2.8 13.0647
      vertex 29.6874 2.9 15
      vertex 29.4146 2.9 13.0777
    endloop
  endfacet
  facet normal -0.99008 0 0.140502
    outer loop
      vertex 29.4127 -14.4 13.0647
      vertex 29.6874 2.9 15
      vertex 29.4127 2.8 13.0647
    endloop
  endfacet
  facet normal -0.99008 -2.18603e-006 0.140502
    outer loop
      vertex 29.6874 -14.5 15
      vertex 29.4127 -14.4 13.0647
      vertex 29.4146 -14.5 13.0777
    endloop
  endfacet
  facet normal -0.99008 0 0.140502
    outer loop
      vertex 29.4127 -14.4 13.0647
      vertex 29.6874 -14.5 15
      vertex 29.6874 2.9 15
    endloop
  endfacet
  facet normal 0.990083 6.21524e-006 -0.140482
    outer loop
      vertex 34.464 -14.5 12.3612
      vertex 34.4621 -14.4 12.3482
      vertex 34.48 -14.5 12.4742
    endloop
  endfacet
  facet normal 0.99008 0 -0.140502
    outer loop
      vertex 34.8385 -14.4 15
      vertex 34.4621 2.8 12.3482
      vertex 34.8385 2.8 15
    endloop
  endfacet
  facet normal 0.99008 0 -0.140502
    outer loop
      vertex 34.4621 2.8 12.3482
      vertex 34.8385 -14.4 15
      vertex 34.4621 -14.4 12.3482
    endloop
  endfacet
  facet normal 0.990083 -6.21524e-006 -0.140482
    outer loop
      vertex 34.48 2.9 12.4742
      vertex 34.4621 2.8 12.3482
      vertex 34.464 2.9 12.3612
    endloop
  endfacet
  facet normal -1 0 0
    outer loop
      vertex 28.921 -10.0436 0
      vertex 28.921 -14.4 10.001
      vertex 28.921 -10.0436 10.001
    endloop
  endfacet
  facet normal -1 0 0
    outer loop
      vertex 28.921 -14.5 0
      vertex 28.921 -14.4 10.001
      vertex 28.921 -10.0436 0
    endloop
  endfacet
  facet normal -1 -0 0
    outer loop
      vertex 28.921 -14.4 10.001
      vertex 28.921 -14.5 0
      vertex 28.921 -14.5 10.001
    endloop
  endfacet
  facet normal -1 0 0
    outer loop
      vertex 28.921 2.89999 0
      vertex 28.921 2.79999 10.001
      vertex 28.921 2.89999 10.001
    endloop
  endfacet
  facet normal -1 0 0
    outer loop
      vertex 28.921 -1.55643 0
      vertex 28.921 2.79999 10.001
      vertex 28.921 2.89999 0
    endloop
  endfacet
  facet normal -1 -0 0
    outer loop
      vertex 28.921 2.79999 10.001
      vertex 28.921 -1.55643 0
      vertex 28.921 -1.55643 10.001
    endloop
  endfacet
  facet normal 1 0 -9.26784e-007
    outer loop
      vertex 34.4621 2.8 12.3482
      vertex 34.4621 -14.4 0
      vertex 34.4621 2.79999 0
    endloop
  endfacet
  facet normal 1 0 -9.26784e-007
    outer loop
      vertex 34.4621 -14.4 0
      vertex 34.4621 2.8 12.3482
      vertex 34.4621 -14.4 12.3482
    endloop
  endfacet
  facet normal -0.987362 0 0.158483
    outer loop
      vertex 28.921 -10.0436 10.001
      vertex 28.921 -14.4 10.001
      vertex 29.036 -10.11 10.7179
    endloop
  endfacet
  facet normal -0.987362 0 0.158483
    outer loop
      vertex 28.921 2.79999 10.001
      vertex 28.921 -1.55643 10.001
      vertex 29.036 -1.49 10.7179
    endloop
  endfacet
  facet normal -0.987361 5.59633e-007 0.158486
    outer loop
      vertex 29.1776 -1.57175 11.6
      vertex 28.921 2.79999 10.001
      vertex 29.036 -1.49 10.7179
    endloop
  endfacet
  facet normal -0.987362 -1.77681e-007 0.158484
    outer loop
      vertex 28.921 2.79999 10.001
      vertex 29.1776 -1.57175 11.6
      vertex 29.4127 2.8 13.0647
    endloop
  endfacet
  facet normal -0.987362 0 0.158483
    outer loop
      vertex 29.1776 -10.0283 11.6
      vertex 29.4127 2.8 13.0647
      vertex 29.1776 -1.57175 11.6
    endloop
  endfacet
  facet normal -0.987361 -5.59632e-007 0.158486
    outer loop
      vertex 28.921 -14.4 10.001
      vertex 29.1776 -10.0283 11.6
      vertex 29.036 -10.11 10.7179
    endloop
  endfacet
  facet normal -0.987362 0 0.158483
    outer loop
      vertex 29.1776 -10.0283 11.6
      vertex 29.4127 -14.4 13.0647
      vertex 29.4127 2.8 13.0647
    endloop
  endfacet
  facet normal -0.987362 1.7768e-007 0.158484
    outer loop
      vertex 29.4127 -14.4 13.0647
      vertex 29.1776 -10.0283 11.6
      vertex 28.921 -14.4 10.001
    endloop
  endfacet
  facet normal -0.99008 1.47302e-007 0.140502
    outer loop
      vertex 29.6874 2.9 15
      vertex 29.5459 10 14.0032
      vertex 29.4146 2.9 13.0777
    endloop
  endfacet
  facet normal -0.99008 0 0.140501
    outer loop
      vertex 29.5459 10 14.0032
      vertex 29.6874 2.9 15
      vertex 29.6874 10 15
    endloop
  endfacet
  facet normal 0.990078 4.44819e-005 -0.140522
    outer loop
      vertex 34.8385 3.9838 15
      vertex 34.4621 2.8 12.3482
      vertex 34.48 2.9 12.4742
    endloop
  endfacet
  facet normal 0.99008 0 -0.140502
    outer loop
      vertex 34.8385 3.9838 15
      vertex 34.5953 10 13.2867
      vertex 34.8385 10 15
    endloop
  endfacet
  facet normal 0.99008 -3.35524e-007 -0.140503
    outer loop
      vertex 34.48 2.9 12.4742
      vertex 34.5953 10 13.2867
      vertex 34.8385 3.9838 15
    endloop
  endfacet
  facet normal 0.990083 -2.7369e-006 -0.140482
    outer loop
      vertex 34.5953 10 13.2867
      vertex 34.48 2.9 12.4742
      vertex 34.464 2.9 12.3612
    endloop
  endfacet
  facet normal 0.99008 0 -0.140502
    outer loop
      vertex 34.8385 2.8 15
      vertex 34.4621 2.8 12.3482
      vertex 34.8385 3.9838 15
    endloop
  endfacet
  facet normal 0.999829 -0.0184938 -9.50414e-007
    outer loop
      vertex 34.5953 10 12.0391
      vertex 34.4621 2.79999 0
      vertex 34.5953 10 0
    endloop
  endfacet
  facet normal 0.999829 -0.018494 -3.0572e-006
    outer loop
      vertex 34.464 2.9 12.3612
      vertex 34.5953 10 12.0391
      vertex 34.5953 10 13.2867
    endloop
  endfacet
  facet normal 0.999829 -0.0184979 -9.09482e-007
    outer loop
      vertex 34.4621 2.79999 0
      vertex 34.464 2.9 12.3612
      vertex 34.4621 2.8 12.3482
    endloop
  endfacet
  facet normal 0.999829 -0.0184939 -9.42384e-007
    outer loop
      vertex 34.464 2.9 12.3612
      vertex 34.4621 2.79999 0
      vertex 34.5953 10 12.0391
    endloop
  endfacet
  facet normal -0.994406 0.0095285 0.105192
    outer loop
      vertex 29.0523 10 10.5995
      vertex 28.921 2.89999 10.001
      vertex 29.0538 10 10.6135
    endloop
  endfacet
  facet normal -0.987358 -0.00239436 0.158486
    outer loop
      vertex 29.4962 10 13.6937
      vertex 29.4146 2.9 13.0777
      vertex 29.5459 10 14.0032
    endloop
  endfacet
  facet normal -0.987359 -0.00239418 0.158484
    outer loop
      vertex 28.921 2.79999 10.001
      vertex 29.4146 2.9 13.0777
      vertex 29.4962 10 13.6937
    endloop
  endfacet
  facet normal -0.987359 -0.00239215 0.158484
    outer loop
      vertex 29.4146 2.9 13.0777
      vertex 28.921 2.79999 10.001
      vertex 29.4127 2.8 13.0647
    endloop
  endfacet
  facet normal -0.999829 0.0184943 1.27462e-005
    outer loop
      vertex 29.0523 10 10.001
      vertex 28.921 2.89999 10.001
      vertex 29.0523 10 10.5995
    endloop
  endfacet
  facet normal -0.988058 -8.14633e-005 0.154081
    outer loop
      vertex 28.921 2.89999 10.001
      vertex 29.4962 10 13.6937
      vertex 29.4954 10 13.6884
    endloop
  endfacet
  facet normal -0.988082 0 0.153928
    outer loop
      vertex 29.4962 10 13.6937
      vertex 28.921 2.89999 10.001
      vertex 28.921 2.79999 10.001
    endloop
  endfacet
  facet normal -0.989824 0.00625356 0.142158
    outer loop
      vertex 29.0538 10 10.6135
      vertex 28.921 2.89999 10.001
      vertex 29.4954 10 13.6884
    endloop
  endfacet
  facet normal -0.999829 0.0184943 0
    outer loop
      vertex 28.921 2.89999 0
      vertex 29.0523 10 10.001
      vertex 29.0523 10 0
    endloop
  endfacet
  facet normal -0.999829 0.0184943 0
    outer loop
      vertex 29.0523 10 10.001
      vertex 28.921 2.89999 0
      vertex 28.921 2.89999 10.001
    endloop
  endfacet
  facet normal 0.990078 -4.44819e-005 -0.140522
    outer loop
      vertex 34.8385 -15.5838 15
      vertex 34.48 -14.5 12.4742
      vertex 34.4621 -14.4 12.3482
    endloop
  endfacet
  facet normal 0.99008 1.95615e-008 -0.140503
    outer loop
      vertex 34.5657 -20 13.0781
      vertex 34.48 -14.5 12.4742
      vertex 34.8385 -15.5838 15
    endloop
  endfacet
  facet normal 0.99008 0 -0.140503
    outer loop
      vertex 34.5657 -20 13.0781
      vertex 34.8385 -15.5838 15
      vertex 34.8385 -20 15
    endloop
  endfacet
  facet normal 0.990083 2.33864e-006 -0.140482
    outer loop
      vertex 34.48 -14.5 12.4742
      vertex 34.5657 -20 13.0781
      vertex 34.464 -14.5 12.3612
    endloop
  endfacet
  facet normal -0.99008 2.70704e-008 0.140502
    outer loop
      vertex 29.5163 -20 13.7947
      vertex 29.6874 -14.5 15
      vertex 29.4146 -14.5 13.0777
    endloop
  endfacet
  facet normal -0.99008 0 0.140502
    outer loop
      vertex 29.6874 -14.5 15
      vertex 29.5163 -20 13.7947
      vertex 29.6874 -20 15
    endloop
  endfacet
  facet normal 0.99008 0 -0.140502
    outer loop
      vertex 34.8385 -15.5838 15
      vertex 34.4621 -14.4 12.3482
      vertex 34.8385 -14.4 15
    endloop
  endfacet
  facet normal 0.999829 0.0184971 -7.08335e-006
    outer loop
      vertex 34.5657 -20 9.36375
      vertex 34.4621 -14.4 12.3482
      vertex 34.464 -14.5 12.3612
    endloop
  endfacet
  facet normal 0.999829 0.0184938 -1.02684e-006
    outer loop
      vertex 34.5657 -20 9.36375
      vertex 34.464 -14.5 12.3612
      vertex 34.5657 -20 13.0781
    endloop
  endfacet
  facet normal 0.999829 0.0184938 -9.18056e-007
    outer loop
      vertex 34.4621 -14.4 12.3482
      vertex 34.5657 -20 9.36375
      vertex 34.4621 -14.4 0
    endloop
  endfacet
  facet normal -0.987359 0.00239215 0.158484
    outer loop
      vertex 28.921 -14.4 10.001
      vertex 29.4146 -14.5 13.0777
      vertex 29.4127 -14.4 13.0647
    endloop
  endfacet
  facet normal -0.987359 0.00239408 0.158484
    outer loop
      vertex 29.3684 -20 12.8731
      vertex 29.4146 -14.5 13.0777
      vertex 28.921 -14.4 10.001
    endloop
  endfacet
  facet normal -0.987359 0.00239412 0.158483
    outer loop
      vertex 29.4146 -14.5 13.0777
      vertex 29.3684 -20 12.8731
      vertex 29.5163 -20 13.7947
    endloop
  endfacet
  facet normal -0.994407 -0.00952885 0.105187
    outer loop
      vertex 29.0239 -20 10.4755
      vertex 28.921 -14.5 10.001
      vertex 29.0227 -20 10.4646
    endloop
  endfacet
  facet normal 0.999829 0.018494 -8.1464e-007
    outer loop
      vertex 34.5657 -20 0
      vertex 34.4621 -14.4 0
      vertex 34.5657 -20 9.36375
    endloop
  endfacet
  facet normal -0.989824 -0.0062534 0.142159
    outer loop
      vertex 29.366 -20 12.8575
      vertex 28.921 -14.5 10.001
      vertex 29.0239 -20 10.4755
    endloop
  endfacet
  facet normal -0.988083 -2.17818e-006 0.153924
    outer loop
      vertex 29.3684 -20 12.8731
      vertex 28.921 -14.5 10.001
      vertex 29.366 -20 12.8575
    endloop
  endfacet
  facet normal -0.988082 0 0.153928
    outer loop
      vertex 28.921 -14.5 10.001
      vertex 29.3684 -20 12.8731
      vertex 28.921 -14.4 10.001
    endloop
  endfacet
  facet normal -0.999829 -0.0184943 0
    outer loop
      vertex 29.0227 -20 0
      vertex 28.921 -14.5 10.001
      vertex 28.921 -14.5 0
    endloop
  endfacet
  facet normal -0.999829 -0.0184943 0
    outer loop
      vertex 28.921 -14.5 10.001
      vertex 29.0227 -20 0
      vertex 29.0227 -20 10.001
    endloop
  endfacet
  facet normal -0.999829 -0.0184943 1.23407e-005
    outer loop
      vertex 29.0227 -20 10.4646
      vertex 28.921 -14.5 10.001
      vertex 29.0227 -20 10.001
    endloop
  endfacet
  facet normal 0.499996 0.866028 0
    outer loop
      vertex 29.1776 -1.57175 11.6
      vertex 29.036 -1.49 10.7179
      vertex 29.036 -1.49 11.6
    endloop
  endfacet
  facet normal -0.5 -0.866025 0
    outer loop
      vertex 25.3035 -7.955 11.6
      vertex 29.036 -10.11 10.7179
      vertex 29.036 -10.11 11.6
    endloop
  endfacet
  facet normal -0.5 -0.866025 -2.05312e-007
    outer loop
      vertex 25.3035 -7.955 11.6
      vertex 28.921 -10.0436 10.001
      vertex 29.036 -10.11 10.7179
    endloop
  endfacet
  facet normal -0.5 -0.866025 0
    outer loop
      vertex 25.3035 -7.955 0
      vertex 28.921 -10.0436 10.001
      vertex 25.3035 -7.955 11.6
    endloop
  endfacet
  facet normal -0.5 -0.866025 -0
    outer loop
      vertex 28.921 -10.0436 10.001
      vertex 25.3035 -7.955 0
      vertex 28.921 -10.0436 0
    endloop
  endfacet
  facet normal -0.5 0.866025 0
    outer loop
      vertex 29.036 -1.49 10.7179
      vertex 25.3035 -3.645 11.6
      vertex 29.036 -1.49 11.6
    endloop
  endfacet
  facet normal -0.5 0.866025 -6.21557e-007
    outer loop
      vertex 28.921 -1.55643 10.001
      vertex 25.3035 -3.645 11.6
      vertex 29.036 -1.49 10.7179
    endloop
  endfacet
  facet normal -0.5 0.866025 0
    outer loop
      vertex 25.3035 -3.645 0
      vertex 28.921 -1.55643 10.001
      vertex 28.921 -1.55643 0
    endloop
  endfacet
  facet normal -0.5 0.866025 0
    outer loop
      vertex 28.921 -1.55643 10.001
      vertex 25.3035 -3.645 0
      vertex 25.3035 -3.645 11.6
    endloop
  endfacet
  facet normal 0 0 1
    outer loop
      vertex 25.3035 -3.645 11.6
      vertex 29.1776 -1.57175 11.6
      vertex 29.036 -1.49 11.6
    endloop
  endfacet
  facet normal 0 0 1
    outer loop
      vertex 29.1776 -1.57175 11.6
      vertex 25.3035 -3.645 11.6
      vertex 29.1776 -10.0283 11.6
    endloop
  endfacet
  facet normal -0 0 1
    outer loop
      vertex 25.3035 -7.955 11.6
      vertex 29.1776 -10.0283 11.6
      vertex 25.3035 -3.645 11.6
    endloop
  endfacet
  facet normal 0 0 1
    outer loop
      vertex 29.1776 -10.0283 11.6
      vertex 25.3035 -7.955 11.6
      vertex 29.036 -10.11 11.6
    endloop
  endfacet
  facet normal -1 0 0
    outer loop
      vertex 25.3035 -7.955 0
      vertex 25.3035 -3.645 11.6
      vertex 25.3035 -3.645 0
    endloop
  endfacet
  facet normal -1 -0 0
    outer loop
      vertex 25.3035 -3.645 11.6
      vertex 25.3035 -7.955 0
      vertex 25.3035 -7.955 11.6
    endloop
  endfacet
  facet normal 0.499994 -0.866029 0
    outer loop
      vertex 29.036 -10.11 11.6
      vertex 29.036 -10.11 10.7179
      vertex 29.1776 -10.0283 11.6
    endloop
  endfacet
  facet normal -0.5 -0.866026 0
    outer loop
      vertex 29.036 -3.09 0
      vertex 31.383 -4.445 10
      vertex 29.036 -3.09 10
    endloop
  endfacet
  facet normal -0.5 -0.866026 -0
    outer loop
      vertex 31.383 -4.445 10
      vertex 29.036 -3.09 0
      vertex 31.383 -4.445 0
    endloop
  endfacet
  facet normal 1 -0 0
    outer loop
      vertex 26.6891 -7.155 10
      vertex 26.6891 -4.445 0
      vertex 26.6891 -4.445 10
    endloop
  endfacet
  facet normal 1 0 0
    outer loop
      vertex 26.6891 -4.445 0
      vertex 26.6891 -7.155 10
      vertex 26.6891 -7.155 0
    endloop
  endfacet
  facet normal 0.5 -0.866025 0
    outer loop
      vertex 26.6891 -4.445 0
      vertex 29.036 -3.09 10
      vertex 26.6891 -4.445 10
    endloop
  endfacet
  facet normal 0.5 -0.866025 0
    outer loop
      vertex 29.036 -3.09 10
      vertex 26.6891 -4.445 0
      vertex 29.036 -3.09 0
    endloop
  endfacet
  facet normal 0 0 -1
    outer loop
      vertex 29.036 -8.51 10
      vertex 31.383 -4.445 10
      vertex 31.383 -7.155 10
    endloop
  endfacet
  facet normal 0 0 -1
    outer loop
      vertex 29.036 -8.51 10
      vertex 29.036 -3.09 10
      vertex 31.383 -4.445 10
    endloop
  endfacet
  facet normal 0 0 -1
    outer loop
      vertex 26.6891 -7.155 10
      vertex 29.036 -3.09 10
      vertex 29.036 -8.51 10
    endloop
  endfacet
  facet normal 0 0 -1
    outer loop
      vertex 29.036 -3.09 10
      vertex 26.6891 -7.155 10
      vertex 26.6891 -4.445 10
    endloop
  endfacet
  facet normal -1 0 0
    outer loop
      vertex 31.383 -7.155 0
      vertex 31.383 -4.445 10
      vertex 31.383 -4.445 0
    endloop
  endfacet
  facet normal -1 -0 0
    outer loop
      vertex 31.383 -4.445 10
      vertex 31.383 -7.155 0
      vertex 31.383 -7.155 10
    endloop
  endfacet
  facet normal 0.5 0.866025 -0
    outer loop
      vertex 29.036 -8.51 0
      vertex 26.6891 -7.155 10
      vertex 29.036 -8.51 10
    endloop
  endfacet
  facet normal 0.5 0.866025 0
    outer loop
      vertex 26.6891 -7.155 10
      vertex 29.036 -8.51 0
      vertex 26.6891 -7.155 0
    endloop
  endfacet
  facet normal -0.499999 0.866026 0
    outer loop
      vertex 31.383 -7.155 0
      vertex 29.036 -8.51 10
      vertex 31.383 -7.155 10
    endloop
  endfacet
  facet normal -0.499999 0.866026 0
    outer loop
      vertex 29.036 -8.51 10
      vertex 31.383 -7.155 0
      vertex 29.036 -8.51 0
    endloop
  endfacet
  facet normal -0 0 1
    outer loop
      vertex 29.6874 10 15
      vertex 34.8385 3.9838 15
      vertex 34.8385 10 15
    endloop
  endfacet
  facet normal 0 0 1
    outer loop
      vertex 34.8385 3.9838 15
      vertex 29.6874 2.9 15
      vertex 34.8385 2.8 15
    endloop
  endfacet
  facet normal 0 0 1
    outer loop
      vertex 34.8385 2.8 15
      vertex 29.6874 2.9 15
      vertex 34.8385 -14.4 15
    endloop
  endfacet
  facet normal 0 0 1
    outer loop
      vertex 29.6874 -14.5 15
      vertex 34.8385 -14.4 15
      vertex 29.6874 2.9 15
    endloop
  endfacet
  facet normal 0 0 1
    outer loop
      vertex 34.8385 3.9838 15
      vertex 29.6874 10 15
      vertex 29.6874 2.9 15
    endloop
  endfacet
  facet normal 0 0 1
    outer loop
      vertex 34.8385 -14.4 15
      vertex 29.6874 -14.5 15
      vertex 34.8385 -15.5838 15
    endloop
  endfacet
  facet normal 0 0 1
    outer loop
      vertex 29.6874 -20 15
      vertex 34.8385 -15.5838 15
      vertex 29.6874 -14.5 15
    endloop
  endfacet
  facet normal 0 0 1
    outer loop
      vertex 34.8385 -15.5838 15
      vertex 29.6874 -20 15
      vertex 34.8385 -20 15
    endloop
  endfacet
  facet normal 0 1 -0
    outer loop
      vertex 34.5953 10 13.2867
      vertex 29.6874 10 15
      vertex 34.8385 10 15
    endloop
  endfacet
  facet normal 0 1 0
    outer loop
      vertex 29.6874 10 15
      vertex 34.5953 10 13.2867
      vertex 29.5459 10 14.0032
    endloop
  endfacet
  facet normal 0 1 0
    outer loop
      vertex 29.5459 10 14.0032
      vertex 34.5953 10 13.2867
      vertex 29.4962 10 13.6937
    endloop
  endfacet
  facet normal 0 1 0
    outer loop
      vertex 29.4962 10 13.6937
      vertex 34.5953 10 13.2867
      vertex 29.4954 10 13.6884
    endloop
  endfacet
  facet normal 0 1 -0
    outer loop
      vertex 34.5953 10 12.0391
      vertex 29.4954 10 13.6884
      vertex 34.5953 10 13.2867
    endloop
  endfacet
  facet normal 0 1 0
    outer loop
      vertex 34.5953 10 12.0391
      vertex 29.0538 10 10.6135
      vertex 29.4954 10 13.6884
    endloop
  endfacet
  facet normal 0 1 0
    outer loop
      vertex 34.5953 10 12.0391
      vertex 29.0523 10 10.5995
      vertex 29.0538 10 10.6135
    endloop
  endfacet
  facet normal 0 1 0
    outer loop
      vertex 34.5953 10 12.0391
      vertex 29.0523 10 10.001
      vertex 29.0523 10 10.5995
    endloop
  endfacet
  facet normal 0 1 -0
    outer loop
      vertex 34.5953 10 0
      vertex 29.0523 10 10.001
      vertex 34.5953 10 12.0391
    endloop
  endfacet
  facet normal 0 1 0
    outer loop
      vertex 29.0523 10 10.001
      vertex 34.5953 10 0
      vertex 29.0523 10 0
    endloop
  endfacet
  facet normal 0 -1 0
    outer loop
      vertex 34.5657 -20 13.0781
      vertex 29.6874 -20 15
      vertex 29.5163 -20 13.7947
    endloop
  endfacet
  facet normal 0 -1 0
    outer loop
      vertex 29.6874 -20 15
      vertex 34.5657 -20 13.0781
      vertex 34.8385 -20 15
    endloop
  endfacet
  facet normal 0 -1 0
    outer loop
      vertex 29.3684 -20 12.8731
      vertex 34.5657 -20 13.0781
      vertex 29.5163 -20 13.7947
    endloop
  endfacet
  facet normal 0 -1 0
    outer loop
      vertex 29.366 -20 12.8575
      vertex 34.5657 -20 13.0781
      vertex 29.3684 -20 12.8731
    endloop
  endfacet
  facet normal 0 -1 0
    outer loop
      vertex 29.0239 -20 10.4755
      vertex 34.5657 -20 13.0781
      vertex 29.366 -20 12.8575
    endloop
  endfacet
  facet normal 0 -1 0
    outer loop
      vertex 29.0227 -20 10.001
      vertex 29.0239 -20 10.4755
      vertex 29.0227 -20 10.4646
    endloop
  endfacet
  facet normal 0 -1 -0
    outer loop
      vertex 29.0239 -20 10.4755
      vertex 29.0227 -20 10.001
      vertex 34.5657 -20 9.36375
    endloop
  endfacet
  facet normal 0 -1 0
    outer loop
      vertex 29.0239 -20 10.4755
      vertex 34.5657 -20 9.36375
      vertex 34.5657 -20 13.0781
    endloop
  endfacet
  facet normal 0 -1 0
    outer loop
      vertex 29.0227 -20 0
      vertex 34.5657 -20 9.36375
      vertex 29.0227 -20 10.001
    endloop
  endfacet
  facet normal 0 -1 0
    outer loop
      vertex 34.5657 -20 9.36375
      vertex 29.0227 -20 0
      vertex 34.5657 -20 0
    endloop
  endfacet
endsolid OpenSCAD_Model
