solid OpenSCAD_Model
  facet normal 0.951056 0.309017 0
    outer loop
      vertex 46.549 31.7241 0
      vertex 46.549 31.7241 1
      vertex 47.2596 29.537 1
    endloop
  endfacet
  facet normal 0.951056 0.309017 0
    outer loop
      vertex 47.2596 29.537 0
      vertex 46.549 31.7241 0
      vertex 47.2596 29.537 1
    endloop
  endfacet
  facet normal 0 0 -1
    outer loop
      vertex -47.5 27.25 0
      vertex -47.2596 29.537 0
      vertex -47.5 -27.25 0
    endloop
  endfacet
  facet normal 0 0 -1
    outer loop
      vertex -47.5 -27.25 0
      vertex -47.2596 29.537 0
      vertex -46.549 31.7241 0
    endloop
  endfacet
  facet normal 0 0 -1
    outer loop
      vertex -47.5 -27.25 0
      vertex -46.549 31.7241 0
      vertex -45.3992 33.7156 0
    endloop
  endfacet
  facet normal 0 0 -1
    outer loop
      vertex -47.5 -27.25 0
      vertex -45.3992 33.7156 0
      vertex -43.8604 35.4246 0
    endloop
  endfacet
  facet normal 0 0 -1
    outer loop
      vertex -47.5 -27.25 0
      vertex -43.8604 35.4246 0
      vertex -42 36.7763 0
    endloop
  endfacet
  facet normal 0 0 -1
    outer loop
      vertex -47.5 -27.25 0
      vertex -42 36.7763 0
      vertex -39.8992 37.7116 0
    endloop
  endfacet
  facet normal 0 0 -1
    outer loop
      vertex -47.5 -27.25 0
      vertex -39.8992 37.7116 0
      vertex -37.6498 38.1897 0
    endloop
  endfacet
  facet normal 0 0 -1
    outer loop
      vertex -47.5 -27.25 0
      vertex -37.6498 38.1897 0
      vertex 37.6498 38.1897 0
    endloop
  endfacet
  facet normal 0 0 -1
    outer loop
      vertex -47.5 -27.25 0
      vertex 37.6498 38.1897 0
      vertex 39.8992 37.7116 0
    endloop
  endfacet
  facet normal 0 0 -1
    outer loop
      vertex -47.5 -27.25 0
      vertex 39.8992 37.7116 0
      vertex 42 36.7763 0
    endloop
  endfacet
  facet normal 0 0 -1
    outer loop
      vertex -47.5 -27.25 0
      vertex 42 36.7763 0
      vertex 43.8604 35.4246 0
    endloop
  endfacet
  facet normal 0 0 -1
    outer loop
      vertex -47.5 -27.25 0
      vertex 43.8604 35.4246 0
      vertex 45.3992 33.7156 0
    endloop
  endfacet
  facet normal 0 0 -1
    outer loop
      vertex -47.5 -27.25 0
      vertex 45.3992 33.7156 0
      vertex 46.549 31.7241 0
    endloop
  endfacet
  facet normal 0 0 -1
    outer loop
      vertex -47.5 -27.25 0
      vertex 46.549 31.7241 0
      vertex 47.2596 29.537 0
    endloop
  endfacet
  facet normal 0 0 -1
    outer loop
      vertex -47.5 -27.25 0
      vertex 47.2596 29.537 0
      vertex 47.5 27.25 0
    endloop
  endfacet
  facet normal 0 0 -1
    outer loop
      vertex -47.5 -27.25 0
      vertex 47.5 27.25 0
      vertex 47.5 -27.25 0
    endloop
  endfacet
  facet normal 0 0 -1
    outer loop
      vertex -47.5 -27.25 0
      vertex 47.5 -27.25 0
      vertex 47.2596 -29.537 0
    endloop
  endfacet
  facet normal 0 0 -1
    outer loop
      vertex -47.5 -27.25 0
      vertex 47.2596 -29.537 0
      vertex 46.549 -31.7241 0
    endloop
  endfacet
  facet normal 0 0 -1
    outer loop
      vertex -47.5 -27.25 0
      vertex 46.549 -31.7241 0
      vertex 45.3992 -33.7156 0
    endloop
  endfacet
  facet normal 0 0 -1
    outer loop
      vertex -47.5 -27.25 0
      vertex 45.3992 -33.7156 0
      vertex 43.8604 -35.4246 0
    endloop
  endfacet
  facet normal 0 0 -1
    outer loop
      vertex -47.5 -27.25 0
      vertex 43.8604 -35.4246 0
      vertex 42 -36.7763 0
    endloop
  endfacet
  facet normal 0 0 -1
    outer loop
      vertex -47.5 -27.25 0
      vertex 42 -36.7763 0
      vertex 39.8992 -37.7116 0
    endloop
  endfacet
  facet normal 0 0 -1
    outer loop
      vertex -47.5 -27.25 0
      vertex 39.8992 -37.7116 0
      vertex 37.6498 -38.1897 0
    endloop
  endfacet
  facet normal 0 0 -1
    outer loop
      vertex -47.5 -27.25 0
      vertex 37.6498 -38.1897 0
      vertex -37.6498 -38.1897 0
    endloop
  endfacet
  facet normal 0 0 -1
    outer loop
      vertex -47.5 -27.25 0
      vertex -37.6498 -38.1897 0
      vertex -39.8992 -37.7116 0
    endloop
  endfacet
  facet normal 0 0 -1
    outer loop
      vertex -47.5 -27.25 0
      vertex -39.8992 -37.7116 0
      vertex -42 -36.7763 0
    endloop
  endfacet
  facet normal 0 0 -1
    outer loop
      vertex -47.5 -27.25 0
      vertex -42 -36.7763 0
      vertex -43.8604 -35.4246 0
    endloop
  endfacet
  facet normal 0 0 -1
    outer loop
      vertex -47.5 -27.25 0
      vertex -43.8604 -35.4246 0
      vertex -45.3992 -33.7156 0
    endloop
  endfacet
  facet normal 0 0 -1
    outer loop
      vertex -47.5 -27.25 0
      vertex -45.3992 -33.7156 0
      vertex -46.549 -31.7241 0
    endloop
  endfacet
  facet normal 0 0 -1
    outer loop
      vertex -47.5 -27.25 0
      vertex -46.549 -31.7241 0
      vertex -47.2596 -29.537 0
    endloop
  endfacet
  facet normal 0.994522 0.104528 0
    outer loop
      vertex 47.2596 29.537 0
      vertex 47.2596 29.537 1
      vertex 47.5 27.25 1
    endloop
  endfacet
  facet normal 0.994522 0.104528 0
    outer loop
      vertex 47.5 27.25 0
      vertex 47.2596 29.537 0
      vertex 47.5 27.25 1
    endloop
  endfacet
  facet normal 0.866025 0.5 0
    outer loop
      vertex 45.3992 33.7156 0
      vertex 45.3992 33.7156 1
      vertex 46.549 31.7241 1
    endloop
  endfacet
  facet normal 0.866025 0.5 0
    outer loop
      vertex 46.549 31.7241 0
      vertex 45.3992 33.7156 0
      vertex 46.549 31.7241 1
    endloop
  endfacet
  facet normal 0 0 1
    outer loop
      vertex -47.5 -27.25 1
      vertex -47.2596 -29.537 1
      vertex -46.549 -31.7241 1
    endloop
  endfacet
  facet normal 0 0 1
    outer loop
      vertex -43.8604 -35.4246 1
      vertex -47.5 -27.25 1
      vertex -45.3992 -33.7156 1
    endloop
  endfacet
  facet normal 0 0 1
    outer loop
      vertex -45.3992 -33.7156 1
      vertex -47.5 -27.25 1
      vertex -46.549 -31.7241 1
    endloop
  endfacet
  facet normal 0 0 1
    outer loop
      vertex -42 -36.7763 1
      vertex -47.5 -27.25 1
      vertex -43.8604 -35.4246 1
    endloop
  endfacet
  facet normal 0 0 1
    outer loop
      vertex -39.8992 -37.7116 1
      vertex -47.5 -27.25 1
      vertex -42 -36.7763 1
    endloop
  endfacet
  facet normal 0 0 1
    outer loop
      vertex -37.6498 -38.1897 1
      vertex -47.5 -27.25 1
      vertex -39.8992 -37.7116 1
    endloop
  endfacet
  facet normal 0 0 1
    outer loop
      vertex 37.6498 -38.1897 1
      vertex -47.5 -27.25 1
      vertex -37.6498 -38.1897 1
    endloop
  endfacet
  facet normal 0 0 1
    outer loop
      vertex 39.8992 -37.7116 1
      vertex -47.5 -27.25 1
      vertex 37.6498 -38.1897 1
    endloop
  endfacet
  facet normal 0 0 1
    outer loop
      vertex 42 -36.7763 1
      vertex -47.5 -27.25 1
      vertex 39.8992 -37.7116 1
    endloop
  endfacet
  facet normal 0 0 1
    outer loop
      vertex 43.8604 -35.4246 1
      vertex -47.5 -27.25 1
      vertex 42 -36.7763 1
    endloop
  endfacet
  facet normal 0 0 1
    outer loop
      vertex 45.3992 -33.7156 1
      vertex -47.5 -27.25 1
      vertex 43.8604 -35.4246 1
    endloop
  endfacet
  facet normal 0 0 1
    outer loop
      vertex 46.549 -31.7241 1
      vertex -47.5 -27.25 1
      vertex 45.3992 -33.7156 1
    endloop
  endfacet
  facet normal 0 0 1
    outer loop
      vertex 47.2596 -29.537 1
      vertex -47.5 -27.25 1
      vertex 46.549 -31.7241 1
    endloop
  endfacet
  facet normal 0 0 1
    outer loop
      vertex 47.5 -27.25 1
      vertex -47.5 -27.25 1
      vertex 47.2596 -29.537 1
    endloop
  endfacet
  facet normal 0 0 1
    outer loop
      vertex 47.5 27.25 1
      vertex -47.5 -27.25 1
      vertex 47.5 -27.25 1
    endloop
  endfacet
  facet normal 0 0 1
    outer loop
      vertex 47.2596 29.537 1
      vertex -47.5 -27.25 1
      vertex 47.5 27.25 1
    endloop
  endfacet
  facet normal 0 0 1
    outer loop
      vertex 46.549 31.7241 1
      vertex -47.5 -27.25 1
      vertex 47.2596 29.537 1
    endloop
  endfacet
  facet normal 0 0 1
    outer loop
      vertex 45.3992 33.7156 1
      vertex -47.5 -27.25 1
      vertex 46.549 31.7241 1
    endloop
  endfacet
  facet normal 0 0 1
    outer loop
      vertex 43.8604 35.4246 1
      vertex -47.5 -27.25 1
      vertex 45.3992 33.7156 1
    endloop
  endfacet
  facet normal 0 0 1
    outer loop
      vertex 42 36.7763 1
      vertex -47.5 -27.25 1
      vertex 43.8604 35.4246 1
    endloop
  endfacet
  facet normal 0 0 1
    outer loop
      vertex 39.8992 37.7116 1
      vertex -47.5 -27.25 1
      vertex 42 36.7763 1
    endloop
  endfacet
  facet normal 0 0 1
    outer loop
      vertex 37.6498 38.1897 1
      vertex -47.5 -27.25 1
      vertex 39.8992 37.7116 1
    endloop
  endfacet
  facet normal 0 0 1
    outer loop
      vertex -37.6498 38.1897 1
      vertex -47.5 -27.25 1
      vertex 37.6498 38.1897 1
    endloop
  endfacet
  facet normal 0 0 1
    outer loop
      vertex -39.8992 37.7116 1
      vertex -47.5 -27.25 1
      vertex -37.6498 38.1897 1
    endloop
  endfacet
  facet normal 0 0 1
    outer loop
      vertex -42 36.7763 1
      vertex -47.5 -27.25 1
      vertex -39.8992 37.7116 1
    endloop
  endfacet
  facet normal 0 0 1
    outer loop
      vertex -43.8604 35.4246 1
      vertex -47.5 -27.25 1
      vertex -42 36.7763 1
    endloop
  endfacet
  facet normal 0 0 1
    outer loop
      vertex -45.3992 33.7156 1
      vertex -47.5 -27.25 1
      vertex -43.8604 35.4246 1
    endloop
  endfacet
  facet normal 0 0 1
    outer loop
      vertex -46.549 31.7241 1
      vertex -47.5 -27.25 1
      vertex -45.3992 33.7156 1
    endloop
  endfacet
  facet normal 0 0 1
    outer loop
      vertex -47.2596 29.537 1
      vertex -47.5 -27.25 1
      vertex -46.549 31.7241 1
    endloop
  endfacet
  facet normal 0 0 1
    outer loop
      vertex -47.5 27.25 1
      vertex -47.5 -27.25 1
      vertex -47.2596 29.537 1
    endloop
  endfacet
  facet normal -0.994522 -0.104528 0
    outer loop
      vertex -47.2596 -29.537 0
      vertex -47.2596 -29.537 1
      vertex -47.5 -27.25 0
    endloop
  endfacet
  facet normal -0.994522 -0.104528 0
    outer loop
      vertex -47.5 -27.25 0
      vertex -47.2596 -29.537 1
      vertex -47.5 -27.25 1
    endloop
  endfacet
  facet normal -1 0 0
    outer loop
      vertex -47.5 -27.25 1
      vertex -47.5 27.25 1
      vertex -47.5 -27.25 0
    endloop
  endfacet
  facet normal -1 0 0
    outer loop
      vertex -47.5 -27.25 0
      vertex -47.5 27.25 1
      vertex -47.5 27.25 0
    endloop
  endfacet
  facet normal -0.951056 -0.309017 0
    outer loop
      vertex -46.549 -31.7241 0
      vertex -46.549 -31.7241 1
      vertex -47.2596 -29.537 0
    endloop
  endfacet
  facet normal -0.951056 -0.309017 0
    outer loop
      vertex -47.2596 -29.537 0
      vertex -46.549 -31.7241 1
      vertex -47.2596 -29.537 1
    endloop
  endfacet
  facet normal -0.866025 -0.5 0
    outer loop
      vertex -45.3992 -33.7156 0
      vertex -45.3992 -33.7156 1
      vertex -46.549 -31.7241 0
    endloop
  endfacet
  facet normal -0.866025 -0.5 0
    outer loop
      vertex -46.549 -31.7241 0
      vertex -45.3992 -33.7156 1
      vertex -46.549 -31.7241 1
    endloop
  endfacet
  facet normal -0.743145 -0.669131 0
    outer loop
      vertex -43.8604 -35.4246 0
      vertex -43.8604 -35.4246 1
      vertex -45.3992 -33.7156 0
    endloop
  endfacet
  facet normal -0.743145 -0.669131 0
    outer loop
      vertex -45.3992 -33.7156 0
      vertex -43.8604 -35.4246 1
      vertex -45.3992 -33.7156 1
    endloop
  endfacet
  facet normal -0.587785 -0.809017 0
    outer loop
      vertex -43.8604 -35.4246 0
      vertex -42 -36.7763 0
      vertex -42 -36.7763 1
    endloop
  endfacet
  facet normal -0.587785 -0.809017 0
    outer loop
      vertex -43.8604 -35.4246 1
      vertex -43.8604 -35.4246 0
      vertex -42 -36.7763 1
    endloop
  endfacet
  facet normal -0.406737 -0.913545 0
    outer loop
      vertex -42 -36.7763 0
      vertex -39.8992 -37.7116 0
      vertex -39.8992 -37.7116 1
    endloop
  endfacet
  facet normal -0.406737 -0.913545 0
    outer loop
      vertex -42 -36.7763 1
      vertex -42 -36.7763 0
      vertex -39.8992 -37.7116 1
    endloop
  endfacet
  facet normal -0.207912 -0.978148 0
    outer loop
      vertex -39.8992 -37.7116 0
      vertex -37.6498 -38.1897 0
      vertex -37.6498 -38.1897 1
    endloop
  endfacet
  facet normal -0.207912 -0.978148 0
    outer loop
      vertex -39.8992 -37.7116 1
      vertex -39.8992 -37.7116 0
      vertex -37.6498 -38.1897 1
    endloop
  endfacet
  facet normal 0 -1 0
    outer loop
      vertex -37.6498 -38.1897 0
      vertex 37.6498 -38.1897 0
      vertex 37.6498 -38.1897 1
    endloop
  endfacet
  facet normal 0 -1 0
    outer loop
      vertex -37.6498 -38.1897 1
      vertex -37.6498 -38.1897 0
      vertex 37.6498 -38.1897 1
    endloop
  endfacet
  facet normal 0.207912 -0.978148 0
    outer loop
      vertex 37.6498 -38.1897 0
      vertex 39.8992 -37.7116 0
      vertex 39.8992 -37.7116 1
    endloop
  endfacet
  facet normal 0.207912 -0.978148 0
    outer loop
      vertex 37.6498 -38.1897 1
      vertex 37.6498 -38.1897 0
      vertex 39.8992 -37.7116 1
    endloop
  endfacet
  facet normal 0.406737 -0.913545 0
    outer loop
      vertex 39.8992 -37.7116 0
      vertex 42 -36.7763 0
      vertex 42 -36.7763 1
    endloop
  endfacet
  facet normal 0.406737 -0.913545 0
    outer loop
      vertex 39.8992 -37.7116 1
      vertex 39.8992 -37.7116 0
      vertex 42 -36.7763 1
    endloop
  endfacet
  facet normal 0.587785 -0.809017 0
    outer loop
      vertex 42 -36.7763 0
      vertex 43.8604 -35.4246 0
      vertex 43.8604 -35.4246 1
    endloop
  endfacet
  facet normal 0.587785 -0.809017 0
    outer loop
      vertex 42 -36.7763 1
      vertex 42 -36.7763 0
      vertex 43.8604 -35.4246 1
    endloop
  endfacet
  facet normal 0.743145 -0.669131 0
    outer loop
      vertex 43.8604 -35.4246 0
      vertex 45.3992 -33.7156 0
      vertex 45.3992 -33.7156 1
    endloop
  endfacet
  facet normal 0.743145 -0.669131 0
    outer loop
      vertex 43.8604 -35.4246 1
      vertex 43.8604 -35.4246 0
      vertex 45.3992 -33.7156 1
    endloop
  endfacet
  facet normal 0.866025 -0.5 0
    outer loop
      vertex 45.3992 -33.7156 0
      vertex 46.549 -31.7241 0
      vertex 46.549 -31.7241 1
    endloop
  endfacet
  facet normal 0.866025 -0.5 0
    outer loop
      vertex 45.3992 -33.7156 1
      vertex 45.3992 -33.7156 0
      vertex 46.549 -31.7241 1
    endloop
  endfacet
  facet normal 0.951056 -0.309017 0
    outer loop
      vertex 46.549 -31.7241 0
      vertex 47.2596 -29.537 0
      vertex 47.2596 -29.537 1
    endloop
  endfacet
  facet normal 0.951056 -0.309017 0
    outer loop
      vertex 46.549 -31.7241 1
      vertex 46.549 -31.7241 0
      vertex 47.2596 -29.537 1
    endloop
  endfacet
  facet normal 0.994522 -0.104528 0
    outer loop
      vertex 47.2596 -29.537 0
      vertex 47.5 -27.25 0
      vertex 47.5 -27.25 1
    endloop
  endfacet
  facet normal 0.994522 -0.104528 0
    outer loop
      vertex 47.2596 -29.537 1
      vertex 47.2596 -29.537 0
      vertex 47.5 -27.25 1
    endloop
  endfacet
  facet normal 1 0 0
    outer loop
      vertex 47.5 -27.25 0
      vertex 47.5 27.25 0
      vertex 47.5 27.25 1
    endloop
  endfacet
  facet normal 1 0 0
    outer loop
      vertex 47.5 -27.25 1
      vertex 47.5 -27.25 0
      vertex 47.5 27.25 1
    endloop
  endfacet
  facet normal 0.743145 0.669131 0
    outer loop
      vertex 43.8604 35.4246 0
      vertex 43.8604 35.4246 1
      vertex 45.3992 33.7156 1
    endloop
  endfacet
  facet normal 0.743145 0.669131 0
    outer loop
      vertex 45.3992 33.7156 0
      vertex 43.8604 35.4246 0
      vertex 45.3992 33.7156 1
    endloop
  endfacet
  facet normal 0.587785 0.809017 0
    outer loop
      vertex 42 36.7763 1
      vertex 43.8604 35.4246 1
      vertex 42 36.7763 0
    endloop
  endfacet
  facet normal 0.587785 0.809017 0
    outer loop
      vertex 42 36.7763 0
      vertex 43.8604 35.4246 1
      vertex 43.8604 35.4246 0
    endloop
  endfacet
  facet normal 0.406737 0.913545 0
    outer loop
      vertex 39.8992 37.7116 1
      vertex 42 36.7763 1
      vertex 39.8992 37.7116 0
    endloop
  endfacet
  facet normal 0.406737 0.913545 0
    outer loop
      vertex 39.8992 37.7116 0
      vertex 42 36.7763 1
      vertex 42 36.7763 0
    endloop
  endfacet
  facet normal 0.207912 0.978148 0
    outer loop
      vertex 37.6498 38.1897 1
      vertex 39.8992 37.7116 1
      vertex 37.6498 38.1897 0
    endloop
  endfacet
  facet normal 0.207912 0.978148 0
    outer loop
      vertex 37.6498 38.1897 0
      vertex 39.8992 37.7116 1
      vertex 39.8992 37.7116 0
    endloop
  endfacet
  facet normal 0 1 0
    outer loop
      vertex -37.6498 38.1897 1
      vertex 37.6498 38.1897 1
      vertex -37.6498 38.1897 0
    endloop
  endfacet
  facet normal 0 1 0
    outer loop
      vertex -37.6498 38.1897 0
      vertex 37.6498 38.1897 1
      vertex 37.6498 38.1897 0
    endloop
  endfacet
  facet normal -0.207912 0.978148 0
    outer loop
      vertex -39.8992 37.7116 1
      vertex -37.6498 38.1897 1
      vertex -39.8992 37.7116 0
    endloop
  endfacet
  facet normal -0.207912 0.978148 0
    outer loop
      vertex -39.8992 37.7116 0
      vertex -37.6498 38.1897 1
      vertex -37.6498 38.1897 0
    endloop
  endfacet
  facet normal -0.406737 0.913545 0
    outer loop
      vertex -42 36.7763 1
      vertex -39.8992 37.7116 1
      vertex -42 36.7763 0
    endloop
  endfacet
  facet normal -0.406737 0.913545 0
    outer loop
      vertex -42 36.7763 0
      vertex -39.8992 37.7116 1
      vertex -39.8992 37.7116 0
    endloop
  endfacet
  facet normal -0.587785 0.809017 0
    outer loop
      vertex -43.8604 35.4246 1
      vertex -42 36.7763 1
      vertex -43.8604 35.4246 0
    endloop
  endfacet
  facet normal -0.587785 0.809017 0
    outer loop
      vertex -43.8604 35.4246 0
      vertex -42 36.7763 1
      vertex -42 36.7763 0
    endloop
  endfacet
  facet normal -0.743145 0.669131 0
    outer loop
      vertex -45.3992 33.7156 1
      vertex -43.8604 35.4246 1
      vertex -45.3992 33.7156 0
    endloop
  endfacet
  facet normal -0.743145 0.669131 0
    outer loop
      vertex -45.3992 33.7156 0
      vertex -43.8604 35.4246 1
      vertex -43.8604 35.4246 0
    endloop
  endfacet
  facet normal -0.866025 0.5 0
    outer loop
      vertex -46.549 31.7241 1
      vertex -45.3992 33.7156 1
      vertex -46.549 31.7241 0
    endloop
  endfacet
  facet normal -0.866025 0.5 0
    outer loop
      vertex -46.549 31.7241 0
      vertex -45.3992 33.7156 1
      vertex -45.3992 33.7156 0
    endloop
  endfacet
  facet normal -0.951056 0.309017 0
    outer loop
      vertex -47.2596 29.537 1
      vertex -46.549 31.7241 1
      vertex -47.2596 29.537 0
    endloop
  endfacet
  facet normal -0.951056 0.309017 0
    outer loop
      vertex -47.2596 29.537 0
      vertex -46.549 31.7241 1
      vertex -46.549 31.7241 0
    endloop
  endfacet
  facet normal -0.994522 0.104528 0
    outer loop
      vertex -47.5 27.25 1
      vertex -47.2596 29.537 1
      vertex -47.5 27.25 0
    endloop
  endfacet
  facet normal -0.994522 0.104528 0
    outer loop
      vertex -47.5 27.25 0
      vertex -47.2596 29.537 1
      vertex -47.2596 29.537 0
    endloop
  endfacet
endsolid OpenSCAD_Model
